<svg xmlns="http://www.w3.org/2000/svg" viewBox="0 -20 200 220" width="200" height="220"><g fill="none" stroke="#2d2a32" stroke-width="5" stroke-linecap="round" stroke-linejoin="round"><line x1="100" y1="78" x2="100" y2="140"/><line x1="100" y1="95" x2="80" y2="110"/><line x1="100" y1="95" x2="120" y2="110"/><line x1="100" y1="140" x2="70" y2="165"/><line x1="100" y1="140" x2="130" y2="165"/><line x1="70" y1="165" x2="110" y2="170"/><line x1="130" y1="165" x2="90" y2="170"/><circle cx="100" cy="50" r="28" fill="#ffe2cc"/><path d="M73 44 q4 -26 27 -26 q24 0 28 24 q-14 -10 -30 -10 q-14 0 -25 12z" fill="#5b3a29" stroke="#5b3a29"/><path d="M85 46 q5 4 10 0 M105 46 q5 4 10 0"/><path d="M90 58 q10 9 20 0"/><circle cx="84" cy="56" r="4" fill="#f7a8a8" stroke="none" opacity=".6"/><circle cx="116" cy="56" r="4" fill="#f7a8a8" stroke="none" opacity=".6"/><path d="M74 104 L100 112 L126 104 L126 124 L100 132 L74 124z" fill="#eeebfa"/><line x1="100" y1="112" x2="100" y2="132"/></g></svg>