<svg xmlns="http://www.w3.org/2000/svg" viewBox="0 -20 200 220" width="200" height="220"><g fill="none" stroke="#2d2a32" stroke-width="5" stroke-linecap="round" stroke-linejoin="round"><line x1="100" y1="78" x2="100" y2="140"/><line x1="100" y1="95" x2="72" y2="125"/><line x1="100" y1="95" x2="118" y2="30"/><line x1="118" y1="30" x2="122" y2="40"/><line x1="100" y1="140" x2="82" y2="190"/><line x1="100" y1="140" x2="118" y2="190"/><circle cx="100" cy="50" r="28" fill="#ffe2cc"/><path d="M73 44 q4 -26 27 -26 q24 0 28 24 q-14 -10 -30 -10 q-14 0 -25 12z" fill="#5b3a29" stroke="#5b3a29"/><circle cx="90" cy="46" r="3" fill="#2d2a32" stroke="none"/><circle cx="110" cy="46" r="3" fill="#2d2a32" stroke="none"/><path d="M93 60 h14"/><circle cx="84" cy="56" r="4" fill="#f7a8a8" stroke="none" opacity=".6"/><circle cx="116" cy="56" r="4" fill="#f7a8a8" stroke="none" opacity=".6"/><text x="140" y="20" font-size="30" fill="#7c6fd0" stroke="none" font-family="sans-serif">?</text></g></svg>